<svg width="1550" height="1034" viewBox="0 0 1550 1034" fill="none" xmlns="http://www.w3.org/2000/svg">
<g clip-path="url(#clip0)">
<path d="M1550 0H0V1034H1550V0Z" fill="#003464"/>
<g filter="url(#filter0_f)">
<path d="M1091.89 801.35C1431.45 801.35 1706.72 525.902 1706.72 186.12C1706.72 -153.662 1431.45 -429.11 1091.89 -429.11C752.326 -429.11 477.055 -153.662 477.055 186.12C477.055 525.902 752.326 801.35 1091.89 801.35Z" fill="black"/>
<path d="M182.555 1394.22C522.119 1394.22 797.389 1118.78 797.389 778.993C797.389 439.211 522.119 163.763 182.555 163.763C-157.008 163.763 -432.278 439.211 -432.278 778.993C-432.278 1118.78 -157.008 1394.22 182.555 1394.22Z" fill="#003464"/>
<path d="M652.833 1356.46C992.396 1356.46 1267.67 1081.01 1267.67 741.23C1267.67 401.448 992.396 126 652.833 126C313.27 126 38 401.448 38 741.23C38 1081.01 313.27 1356.46 652.833 1356.46Z" fill="black"/>
<path d="M1446.67 1270.87C1786.23 1270.87 2061.5 995.422 2061.5 655.64C2061.5 315.858 1786.23 40.4099 1446.67 40.4099C1107.1 40.4099 831.833 315.858 831.833 655.64C831.833 995.422 1107.1 1270.87 1446.67 1270.87Z" fill="black"/>
<path d="M913.833 1101.46C1253.4 1101.46 1528.67 826.012 1528.67 486.23C1528.67 146.448 1253.4 -129 913.833 -129C574.27 -129 299 146.448 299 486.23C299 826.012 574.27 1101.46 913.833 1101.46Z" fill="#003464"/>
<path d="M775 304C1047.28 304 1268 139.912 1268 -62.5C1268 -264.912 1047.28 -429 775 -429C502.724 -429 282 -264.912 282 -62.5C282 139.912 502.724 304 775 304Z" fill="black"/>
</g>
</g>
<defs>
<filter id="filter0_f" x="-754.278" y="-751.11" width="3137.78" height="2467.33" filterUnits="userSpaceOnUse" color-interpolation-filters="sRGB">
<feFlood flood-opacity="0" result="BackgroundImageFix"/>
<feBlend mode="normal" in="SourceGraphic" in2="BackgroundImageFix" result="shape"/>
<feGaussianBlur stdDeviation="161" result="effect1_foregroundBlur"/>
</filter>
<clipPath id="clip0">
<rect width="1550" height="1034" fill="white"/>
</clipPath>
</defs>
</svg>
