<svg width="100%" viewBox="0 0 1440 155" fill="none" xmlns="http://www.w3.org/2000/svg"><path d="m1440 123.774-79.5-10.158-81-6.019-79.5 20.316-79.5-18.059-81 3.762L960 130.17l-79.5 1.881-81-26.335-79.5 12.039-79.5 2.257-81-4.138-79.5-2.258-79.5 6.396-81 1.881-79.5 10.158-79.5-10.158-81 6.019-79.5-7.9v21.068l79.5 7.9 81 2.258L240 155l79.5-10.158 81 4.138 79.5-10.157 79.5 4.138 81 4.138 79.5-6.019 79.5-10.158 81 22.197 79.5-1.881 79.5-14.296 81 1.881 79.5 12.415 79.5-18.435 81 6.02 79.5 10.158v-25.207Z" fill="#00154A"/><path d="M1440 81.262h-79.5l-81-6.02L1200 85.4l-79.5-12.415-81-3.762L960 91.42h-79.5l-81-16.177-79.5 6.02-79.5 1.88-81-3.762-79.5-6.396-79.5 14.296-81 4.139L240 87.28h-79.5l-81 6.02L0 89.539v31.225l79.5 7.901 81-6.019 79.5 10.157 79.5-10.157 81-1.882 79.5-6.395 79.5 2.257 81 4.138 79.5-2.257 79.5-12.039 81 26.335 79.5-1.881 79.5-16.553 81-3.762 79.5 18.058 79.5-20.315 81 6.019 79.5 10.158V81.262Z" fill="#00255E"/><path d="m1440 56.808-79.5-1.88-81-10.159-79.5 14.297-79.5-16.554-81 4.139L960 59.065l-79.5 3.763-81-13.92L720 52.67l-79.5 2.257-81 1.881L480 40.631l-79.5 14.296-81 7.9-79.5 2.258-79.5-8.277-81 8.277H0V90.29l79.5 3.762 81-6.02H240l79.5 4.14 81-4.14L480 73.739l79.5 6.395 81 3.763 79.5-1.882 79.5-6.019 81 16.177H960l79.5-22.196 81 3.762 79.5 12.415 79.5-10.158 81 6.02h79.5V56.808Z" fill="#023470"/><path d="M1440 0H0v65.837h79.5l81-8.276 79.5 8.276 79.5-2.257 81-7.9L480 41.382l79.5 16.178 81-1.881 79.5-2.258 79.5-3.762 81 13.92 79.5-3.762 79.5-12.415 81-4.138 79.5 16.553 79.5-14.296 81 10.158 79.5 1.88V0Z" fill="#034482"/></svg>
