<svg width="42" height="41" viewBox="0 0 42 41" xmlns="http://www.w3.org/2000/svg">
<path d="M21.1231 0C15.6396 0 14.955 0.0252308 12.802 0.121108C10.6523 0.222031 9.18894 0.560123 7.90217 1.05969C6.57503 1.5744 5.44806 2.26572 4.32613 3.38765C3.2042 4.50958 2.51119 5.63487 1.99817 6.96369C1.4986 8.25046 1.15883 9.71385 1.05958 11.8635C0.958661 14.0165 0.938477 14.7011 0.938477 20.1846C0.938477 25.6681 0.963707 26.3527 1.05958 28.5057C1.16051 30.6537 1.4986 32.1188 1.99817 33.4055C2.51288 34.731 3.2042 35.8597 4.32613 36.9816C5.44806 38.1018 6.57335 38.7965 7.90217 39.3095C9.19062 39.8074 10.654 40.1489 12.802 40.2481C14.955 40.349 15.6396 40.3692 21.1231 40.3692C26.6066 40.3692 27.2912 40.344 29.4442 40.2481C31.5922 40.1472 33.0572 39.8074 34.344 39.3095C35.6695 38.7948 36.7981 38.1018 37.9201 36.9816C39.0403 35.8597 39.735 34.736 40.248 33.4055C40.7459 32.1188 41.0874 30.6537 41.1866 28.5057C41.2875 26.3527 41.3077 25.6681 41.3077 20.1846C41.3077 14.7011 41.2825 14.0165 41.1866 11.8635C41.0857 9.71553 40.7459 8.24878 40.248 6.96369C39.7333 5.63655 39.0403 4.50958 37.9201 3.38765C36.7981 2.26572 35.6745 1.57272 34.344 1.05969C33.0572 0.560123 31.5922 0.220349 29.4442 0.121108C27.2912 0.0201846 26.6066 0 21.1231 0ZM21.1231 3.63323C26.5107 3.63323 27.1532 3.66014 29.281 3.75266C31.249 3.84517 32.3171 4.17149 33.027 4.45071C33.9723 4.81571 34.6417 5.25305 35.3516 5.95783C36.0563 6.66429 36.4937 7.33543 36.8587 8.28074C37.1345 8.99056 37.4642 10.0587 37.5534 12.0267C37.6492 14.1561 37.6711 14.7953 37.6711 20.1846C37.6711 25.5739 37.6459 26.2148 37.5466 28.3426C37.444 30.3106 37.116 31.3787 36.8385 32.0885C36.4617 33.0338 36.0328 33.7033 35.3263 34.4131C34.6216 35.1179 33.9403 35.5552 33.0051 35.9202C32.2986 36.1961 31.2137 36.5257 29.2457 36.6149C27.1028 36.7108 26.472 36.7326 21.0726 36.7326C15.6716 36.7326 15.0408 36.7074 12.8995 36.6082C10.9299 36.5056 9.84494 36.1776 9.13848 35.9C8.18139 35.5232 7.52371 35.0943 6.81893 34.3879C6.11078 33.6831 5.65831 33.0018 5.30508 32.0666C5.02754 31.3602 4.70123 30.2752 4.59862 28.3072C4.52293 26.1879 4.49602 25.5335 4.49602 20.1594C4.49602 14.7835 4.52293 14.1275 4.59862 11.9829C4.70123 10.0149 5.02754 8.93169 5.30508 8.22523C5.65831 7.26646 6.11078 6.61046 6.81893 5.90232C7.52371 5.19754 8.18139 4.74338 9.13848 4.39184C9.84494 4.11262 10.9063 3.78462 12.8743 3.68369C15.0189 3.608 15.6497 3.58277 21.0474 3.58277L21.1231 3.63323ZM21.1231 9.81982C15.3957 9.81982 10.7583 14.4623 10.7583 20.1846C10.7583 25.912 15.4008 30.5494 21.1231 30.5494C26.8505 30.5494 31.4879 25.907 31.4879 20.1846C31.4879 14.4572 26.8454 9.81982 21.1231 9.81982ZM21.1231 26.9128C17.4058 26.9128 14.3949 23.9019 14.3949 20.1846C14.3949 16.4673 17.4058 13.4564 21.1231 13.4564C24.8404 13.4564 27.8513 16.4673 27.8513 20.1846C27.8513 23.9019 24.8404 26.9128 21.1231 26.9128ZM34.3205 9.41108C34.3205 10.7483 33.2339 11.8332 31.8983 11.8332C30.5611 11.8332 29.4762 10.7466 29.4762 9.41108C29.4762 8.07553 30.5628 6.99061 31.8983 6.99061C33.2322 6.98892 34.3205 8.07553 34.3205 9.41108Z" />
</svg>
