<svg width="1440" height="646" viewBox="0 0 1440 646" fill="none" xmlns="http://www.w3.org/2000/svg">
<path d="M1440 0H0V646H1440V0Z" fill="black"/>
<path d="M-2.12669e-05 191L34.32 217.065C68.88 243.13 137.52 295.26 205.92 317.899C274.32 340.389 342.48 333.538 410.88 319.389C479.28 305.239 547.92 283.791 616.8 272.621C685.68 261.45 754.32 260.556 823.2 256.237C892.08 252.067 960.72 244.619 1029.12 233.449C1097.52 222.278 1165.68 207.384 1234.08 205.447C1302.48 203.362 1371.12 214.384 1405.68 219.746L1440 225.257L1440 684L1405.68 684C1371.12 684 1302.48 684 1234.08 684C1165.68 684 1097.52 684 1029.12 684C960.72 684 892.08 684 823.2 684C754.32 684 685.68 684 616.8 684C547.92 684 479.28 684 410.88 684C342.48 684 274.32 684 205.92 684C137.52 684 68.88 684 34.32 684L0 684L-2.12669e-05 191Z" fill="#2364C7"/>
<path d="M-1.81178e-05 264L34.32 269.958C68.88 275.915 137.52 287.83 205.92 301.979C274.32 316.128 342.48 332.511 410.88 341C479.28 349.34 547.92 349.936 616.8 343.979C685.68 338.021 754.32 325.511 823.2 325.064C892.08 324.617 960.72 335.936 1029.12 351.426C1097.52 366.766 1165.68 386.128 1234.08 384.192C1302.48 382.106 1371.12 358.872 1405.68 347.106L1440 335.489L1440 684L1405.68 684C1371.12 684 1302.48 684 1234.08 684C1165.68 684 1097.52 684 1029.12 684C960.72 684 892.08 684 823.2 684C754.32 684 685.68 684 616.8 684C547.92 684 479.28 684 410.88 684C342.48 684 274.32 684 205.92 684C137.52 684 68.88 684 34.32 684L0 684L-1.81178e-05 264Z" fill="#0052C5"/>
<path d="M-1.47531e-05 342L34.32 360.141C68.88 378.133 137.52 414.415 205.92 421.998C274.32 429.731 342.48 408.913 410.88 412.928C479.28 416.794 547.92 445.641 616.8 447.128C685.68 448.615 754.32 422.742 823.2 421.998C892.08 421.255 960.72 445.641 1029.12 444.303C1097.52 443.113 1165.68 416.348 1234.08 419.322C1302.48 422.296 1371.12 455.009 1405.68 471.365L1440 487.722L1440 684L1405.68 684C1371.12 684 1302.48 684 1234.08 684C1165.68 684 1097.52 684 1029.12 684C960.72 684 892.08 684 823.2 684C754.32 684 685.68 684 616.8 684C547.92 684 479.28 684 410.88 684C342.48 684 274.32 684 205.92 684C137.52 684 68.88 684 34.32 684L0 684L-1.47531e-05 342Z" fill="#003E8C"/>
<path d="M-6.76861e-06 527.093L34.32 528.288C68.88 529.633 137.52 532.024 205.92 531.576C274.32 531.128 342.48 527.541 410.88 522.61C479.28 517.678 547.92 511.103 616.8 505.425C685.68 499.746 754.32 494.665 823.2 483.009C892.08 471.353 960.72 452.823 1029.12 445.202C1097.52 437.431 1165.68 440.42 1234.08 454.318C1302.48 468.365 1371.12 493.171 1405.68 505.723L1440 518.127L1440 684L1405.68 684C1371.12 684 1302.48 684 1234.08 684C1165.68 684 1097.52 684 1029.12 684C960.72 684 892.08 684 823.2 684C754.32 684 685.68 684 616.8 684C547.92 684 479.28 684 410.88 684C342.48 684 274.32 684 205.92 684C137.52 684 68.88 684 34.32 684L0 684L-6.76861e-06 527.093Z" fill="#002955"/>
<path d="M-4.99833e-06 568.131L34.32 561C68.88 553.721 137.52 539.461 205.92 540.649C274.32 541.837 342.48 558.772 410.88 563.971C479.28 569.171 547.92 562.634 616.8 554.316C685.68 545.848 754.32 535.45 823.2 542.134C892.08 548.819 960.72 572.587 1029.12 581.203C1097.52 589.968 1165.68 583.431 1234.08 574.37C1302.48 565.16 1371.12 553.276 1405.68 547.334L1440 541.392L1440 684L1405.68 684C1371.12 684 1302.48 684 1234.08 684C1165.68 684 1097.52 684 1029.12 684C960.72 684 892.08 684 823.2 684C754.32 684 685.68 684 616.8 684C547.92 684 479.28 684 410.88 684C342.48 684 274.32 684 205.92 684C137.52 684 68.88 684 34.32 684L0 684L-4.99833e-06 568.131Z" fill="#001122"/>
</svg>
