<svg width="171" height="87" viewBox="0 0 171 87" fill="none" xmlns="http://www.w3.org/2000/svg">
<path d="M106.433 22.1882L105.655 23.746V23.6811C105.438 23.3349 105.254 22.9996 105.103 22.675C104.951 22.3505 104.735 22.08 104.454 21.8637C104.173 21.6473 103.783 21.4851 103.285 21.3769C102.788 21.2687 102.106 21.2362 101.241 21.2795C101.068 21.2795 100.916 21.312 100.787 21.3769C100.657 21.4418 100.527 21.4959 100.397 21.5391C99.3153 21.7988 98.3092 22.2099 97.3789 22.7724C96.4485 23.3349 95.5723 23.9948 94.7501 24.7521C93.928 25.5093 93.1383 26.3315 92.381 27.2185C91.6238 28.1056 90.899 28.9818 90.2066 29.8473C90.1201 29.9771 89.9903 30.161 89.8172 30.399C89.6441 30.637 89.4602 30.8858 89.2655 31.1454C89.0708 31.405 88.8869 31.6539 88.7138 31.8919C88.5407 32.1298 88.4325 32.3138 88.3892 32.4436C87.87 33.309 87.2642 34.2285 86.5718 35.2021C85.8795 36.1757 85.317 37.1818 84.8842 38.2203C84.7544 38.6098 84.5922 39.01 84.3974 39.4211C84.2027 39.8322 84.0404 40.2757 83.9106 40.7517C83.9106 40.968 83.8241 41.1844 83.651 41.4008C83.4779 41.6171 83.3697 41.8335 83.3265 42.0498C82.9803 42.6124 82.7964 43.229 82.7748 43.8997C82.7531 44.5704 82.6558 45.2519 82.4827 45.9443C82.3961 46.2039 82.3529 46.4419 82.3529 46.6582C82.3529 46.8746 82.3096 47.0693 82.223 47.2424C82.1798 47.978 82.2339 48.5838 82.3853 49.0598C82.5368 49.5358 82.7207 50.0983 82.937 50.7474C82.937 50.7907 82.9478 50.8123 82.9695 50.8123C82.9911 50.8123 83.0019 50.8339 83.0019 50.8772C83.6077 52.0023 84.4515 52.7595 85.5333 53.149C86.6151 53.5384 87.9998 53.4302 89.6874 52.8244C90.1634 52.6081 90.7043 52.3376 91.3101 52.0131C91.9159 51.6886 92.4568 51.2883 92.9327 50.8123C93.0193 50.6825 93.1491 50.5527 93.3222 50.4229C93.4953 50.2931 93.6467 50.1416 93.7765 49.9685L95.6588 48.0862C96.3079 47.4371 96.9354 46.7232 97.5412 45.9443C97.6277 45.901 97.7683 45.7928 97.963 45.6197C98.1578 45.4466 98.2984 45.2736 98.3849 45.1005C98.2984 45.5332 98.2551 45.8685 98.2551 46.1065V46.9179C98.2984 47.6102 98.3417 48.1728 98.3849 48.6055C98.4282 49.0382 98.558 49.5358 98.7744 50.0983C99.034 50.7041 99.3802 51.2018 99.8129 51.5912C100.592 52.197 101.468 52.5324 102.442 52.5973C103.415 52.6622 104.41 52.5215 105.427 52.1754C106.444 51.8292 107.418 51.3208 108.348 50.65C109.279 49.9793 110.068 49.2545 110.717 48.4757C110.804 48.3891 110.869 48.335 110.912 48.3134C110.955 48.2917 110.999 48.2377 111.042 48.1511C111.648 47.5886 112.199 46.9611 112.697 46.2688C113.195 45.5765 113.681 44.8625 114.157 44.1269C114.46 43.7374 114.915 43.0884 115.52 42.1796C116.126 41.2709 116.754 40.2973 117.403 39.2588C118.052 38.2203 118.658 37.2359 119.22 36.3055C119.783 35.3752 120.151 34.6937 120.324 34.261C120.41 33.9148 120.497 33.5903 120.583 33.2874L120.843 32.3787V32.1839C120.843 32.0974 120.864 32.0325 120.908 31.9892C120.778 32.0325 120.691 32.0866 120.648 32.1515C120.605 32.2164 120.562 32.2705 120.518 32.3137L120.648 31.1454L120.518 31.405C120.345 31.1887 120.248 30.9832 120.226 30.7884C120.205 30.5937 120.151 30.3882 120.064 30.1718V30.1069L119.934 30.2367V30.1069C119.761 30.3233 119.685 30.3882 119.707 30.3016C119.729 30.2151 119.675 30.2367 119.545 30.3665C119.458 30.28 119.404 30.2151 119.382 30.1718C119.361 30.1285 119.328 30.0853 119.285 30.042C119.242 29.9987 119.209 30.042 119.188 30.1718C119.166 30.3016 119.112 30.3449 119.025 30.3016C119.025 30.2151 119.036 30.1502 119.058 30.1069C119.08 30.0636 119.112 29.9771 119.155 29.8473C119.112 29.8905 119.069 29.8905 119.025 29.8473C118.982 29.804 118.939 29.8256 118.896 29.9122C118.723 29.9987 118.658 30.0961 118.701 30.2043C118.744 30.3124 118.679 30.4098 118.506 30.4963C118.506 30.6262 118.463 30.6694 118.376 30.6262C118.29 30.5829 118.203 30.5613 118.117 30.5613C117.9 30.6045 117.63 30.7343 117.305 30.9507C116.981 31.1671 116.775 31.3401 116.689 31.47C116.602 31.643 116.505 31.8053 116.397 31.9568C116.289 32.1082 116.17 32.2488 116.04 32.3787C115.953 32.3787 115.921 32.4327 115.942 32.5409C115.964 32.6491 115.953 32.7465 115.91 32.833C115.737 32.9628 115.542 33.1467 115.326 33.3847C115.109 33.6227 114.958 33.8499 114.871 34.0662C114.655 34.4124 114.287 35.029 113.768 35.9161C113.249 36.8032 112.665 37.766 112.015 38.8045C111.366 39.843 110.707 40.8491 110.036 41.8227C109.365 42.7963 108.813 43.5211 108.381 43.9971C107.905 44.6029 107.375 45.1546 106.79 45.6522C106.206 46.1498 105.676 46.4852 105.2 46.6582C104.984 46.7448 104.767 46.8205 104.551 46.8854C104.335 46.9503 104.097 46.9612 103.837 46.9179C103.361 46.7448 103.123 46.3553 103.123 45.7495C103.08 44.5379 103.145 43.5535 103.318 42.7963C103.491 42.039 103.686 41.2493 103.902 40.4272C104.378 38.9992 104.822 37.8309 105.233 36.9222C105.644 36.0135 106.087 34.9533 106.563 33.7417C106.909 32.9195 107.299 32.0649 107.732 31.1779C108.164 30.2908 108.619 29.4146 109.095 28.5491C109.224 28.2895 109.398 27.965 109.614 27.5755C109.83 27.1861 110.036 26.7858 110.231 26.3747C110.425 25.9637 110.598 25.5418 110.75 25.109C110.901 24.6763 110.977 24.3085 110.977 24.0056C111.193 23.7027 111.301 23.4431 111.301 23.2267C111.431 22.8806 111.42 22.5993 111.269 22.3829C111.118 22.1666 110.977 21.8853 110.847 21.5391C110.804 21.4526 110.739 21.431 110.652 21.4742C110.566 21.5175 110.501 21.4526 110.458 21.2795C110.328 21.2795 110.22 21.3228 110.133 21.4093C110.047 21.4959 109.982 21.4526 109.938 21.2795C109.852 21.0199 109.744 20.8901 109.614 20.8901C109.354 20.8468 109.181 20.8144 109.095 20.7927C109.008 20.7711 108.792 20.8035 108.446 20.8901C108.099 21.0199 107.732 21.1497 107.342 21.2795C106.953 21.4093 106.65 21.7122 106.433 22.1882ZM102.15 26.7317C102.409 26.6452 102.604 26.8075 102.734 27.2185C102.864 27.6296 102.972 28.0515 103.058 28.4842L102.734 29.3929C102.82 29.566 102.755 29.7499 102.539 29.9446C102.323 30.1394 102.171 30.3665 102.085 30.6262C102.041 30.8425 101.944 31.0156 101.793 31.1454C101.641 31.2752 101.565 31.47 101.565 31.7296C101.479 31.8594 101.436 31.9351 101.436 31.9568C101.436 31.9784 101.414 32.0758 101.371 32.2488C100.851 33.5037 100.137 34.7153 99.2287 35.8836C98.6229 36.8789 98.0712 37.7551 97.5736 38.5124C97.076 39.2696 96.5243 40.0161 95.9185 40.7517C95.529 41.3142 95.1504 41.7686 94.7826 42.1147C94.4148 42.4609 94.0145 42.8936 93.5818 43.4129C92.1106 45.1005 91.0072 45.9984 90.2715 46.1065C89.5359 46.2147 89.1032 45.901 88.9734 45.1654C88.8436 44.4298 88.9518 43.467 89.2979 42.277C89.6441 41.087 90.185 39.9944 90.9206 38.9992C91.0937 38.7396 91.2343 38.5232 91.3425 38.3501C91.4507 38.177 91.548 38.0148 91.6346 37.8633C91.7211 37.7119 91.8077 37.5496 91.8942 37.3765C91.9808 37.2034 92.1322 36.9654 92.3486 36.6625C93.0842 35.5807 93.8847 34.4449 94.7501 33.2549C95.6156 32.0649 96.4377 31.0805 97.2166 30.3016C97.6061 29.7824 97.909 29.4254 98.1253 29.2307C98.3417 29.0359 98.6662 28.7871 99.0989 28.4842C99.2287 28.3111 99.272 28.2246 99.2287 28.2246C99.1855 28.2246 99.3153 28.203 99.6182 28.1597C99.7047 28.1164 99.8129 28.0082 99.9427 27.8351C100.073 27.6621 100.181 27.5755 100.267 27.5755L100.722 27.3483C100.851 27.2834 100.981 27.2077 101.111 27.1212C101.284 27.0779 101.436 26.9914 101.565 26.8615C101.738 26.775 101.803 26.7642 101.76 26.8291C101.717 26.894 101.782 26.8832 101.955 26.7966H102.02C102.063 26.7966 102.106 26.775 102.15 26.7317ZM120.064 30.1069V30.1718C120.064 30.1285 120.075 30.0853 120.096 30.042C120.118 29.9987 120.107 30.0204 120.064 30.1069Z" fill="white"/>
<path d="M128.956 53.9928L120.194 54.6419C119.285 54.7284 118.376 54.8474 117.468 54.9989C116.559 55.1503 115.65 55.2693 114.742 55.3559L114.871 55.0963C114.785 55.0963 114.828 54.9015 115.001 54.5121C115.174 54.1227 115.261 53.863 115.261 53.7332C115.304 53.5168 115.347 53.3221 115.391 53.149L115.52 52.6298C115.78 51.8076 115.986 51.1586 116.137 50.6826C116.289 50.2066 116.418 49.8388 116.527 49.5791C116.635 49.3195 116.71 49.1248 116.754 48.995L116.884 48.6055L117.143 47.6968L117.403 46.853C117.576 46.4203 117.727 46.0092 117.857 45.6198C117.987 45.2304 118.138 44.7976 118.311 44.3217L118.831 42.6341C119.004 42.0715 119.199 41.5306 119.415 41.0114C119.718 40.3623 119.977 39.6808 120.194 38.9668C120.41 38.2528 120.648 37.5713 120.908 36.9222C121.081 36.403 121.178 35.9053 121.2 35.4294C121.221 34.9534 121.34 34.4774 121.557 34.0014C121.946 33.2658 122.26 32.4653 122.498 31.5998C122.736 30.7344 122.985 29.8473 123.244 28.9386C123.158 28.8521 123.158 28.7764 123.244 28.7115C123.331 28.6466 123.374 28.5708 123.374 28.4843C123.374 28.1381 123.439 27.8352 123.569 27.5756C123.699 27.316 123.764 27.0131 123.764 26.6669C123.85 26.5803 123.893 26.4613 123.893 26.3099C123.893 26.1584 123.872 26.0394 123.829 25.9529C123.829 25.8664 123.785 25.6933 123.699 25.4336C123.612 25.174 123.526 24.936 123.439 24.7197C123.266 24.3735 123.104 24.1355 122.952 24.0057L122.271 23.4215C122.011 23.335 121.708 23.3025 121.362 23.3242C121.016 23.3458 120.67 23.3133 120.324 23.2268H120.194C120.194 23.4864 120.096 23.5513 119.902 23.4215C119.707 23.2917 119.588 23.335 119.545 23.5513C119.328 23.7677 119.22 23.9083 119.22 23.9732C119.22 24.0381 119.112 24.0273 118.896 23.9408C118.506 24.5898 118.171 25.3796 117.89 26.3099C117.608 27.2402 117.381 27.8352 117.208 28.0948C116.083 30.9508 115.12 33.6444 114.32 36.1758C113.519 38.7072 112.881 40.9465 112.405 42.8937L111.886 44.3866L111.496 45.8794L111.431 46.2689C111.345 46.615 111.258 46.9179 111.172 47.1776C111.128 47.3939 111.074 47.5995 111.009 47.7942C110.944 47.9889 110.869 48.1945 110.782 48.4108C110.609 48.9733 110.458 49.4277 110.328 49.7739C110.198 50.12 110.09 50.4229 110.003 50.6826C109.917 50.9422 109.819 51.2018 109.711 51.4614C109.603 51.7211 109.506 52.0456 109.419 52.4351C109.289 52.6514 109.203 52.9002 109.16 53.1815C109.116 53.4628 109.051 53.7332 108.965 53.9928C108.878 54.2525 108.803 54.5121 108.738 54.7717C108.673 55.0313 108.597 55.291 108.51 55.5506C108.51 55.7237 108.489 55.8535 108.446 55.9401C108.316 56.1564 108.283 56.243 108.348 56.1997C108.413 56.1564 108.316 56.1564 108.056 56.1997L102.539 57.1733C102.193 57.2598 101.89 57.3139 101.63 57.3356C101.371 57.3572 101.089 57.3896 100.787 57.4329C100.613 57.5195 100.505 57.5627 100.462 57.5627L98.4499 57.8224L96.6974 58.2118C96.1781 58.2983 95.648 58.4173 95.1071 58.5688C94.5662 58.7202 94.0145 58.8609 93.452 58.9907C93.0193 59.0772 92.5866 59.1962 92.1539 59.3477C91.7211 59.4991 91.3101 59.6181 90.9206 59.7047C90.5312 59.8345 90.1417 59.9535 89.7523 60.0617C89.3628 60.1698 88.9734 60.3105 88.584 60.4836L86.2473 61.3923C85.7713 61.6519 85.3061 61.9115 84.8518 62.1711C84.3974 62.4308 83.9323 62.7337 83.4563 63.0798C82.5909 63.7289 81.8552 64.4429 81.2494 65.2218C80.8167 65.741 80.4165 66.3036 80.0487 66.9094C79.6808 67.5152 79.3888 68.1859 79.1724 68.9215C78.9128 69.6571 78.783 70.4576 78.783 71.3231C78.8262 72.6212 79.0859 73.7895 79.5618 74.8281C79.7349 75.4339 80.0811 75.9964 80.6004 76.5156C80.86 76.9484 81.1629 77.2945 81.5091 77.5542C81.8552 77.8138 82.2447 78.0951 82.6774 78.398C83.1967 78.7874 83.6943 79.0254 84.1703 79.1119C84.8626 79.5014 85.6199 79.6961 86.442 79.6961C86.6584 79.6961 86.9505 79.7177 87.3183 79.761C87.6861 79.8043 88.0647 79.8259 88.4541 79.8259H89.5576C89.9037 79.8259 90.2066 79.8043 90.4663 79.761C90.6393 79.7177 90.8016 79.7069 90.9531 79.7286C91.1045 79.7502 91.2884 79.7394 91.5048 79.6961C91.851 79.6096 92.1647 79.5338 92.4459 79.4689C92.7272 79.404 93.0193 79.3499 93.3222 79.3067C93.4953 79.3067 93.6251 79.2634 93.7116 79.1768L94.2309 78.9172C94.5771 78.7874 94.88 78.6468 95.1396 78.4953C95.3992 78.3439 95.6588 78.2249 95.9185 78.1383C96.1781 78.0518 96.4161 78.0302 96.6325 78.0734C96.6757 78.0734 96.719 78.0518 96.7623 78.0085C96.8055 77.9652 96.8704 77.922 96.957 77.8787C96.957 77.7056 97.0435 77.6623 97.2166 77.7489C97.2166 77.7922 97.2599 77.7705 97.3464 77.684L98.6446 77.0349C99.3802 76.5589 100.127 76.0397 100.884 75.4771C101.641 74.9146 102.366 74.3304 103.058 73.7246L105.07 71.7125C105.287 71.4096 105.536 71.1175 105.817 70.8363C106.098 70.555 106.347 70.2413 106.563 69.8951C106.953 69.4191 107.353 68.9431 107.764 68.4671C108.175 67.9912 108.554 67.4719 108.9 66.9094C109.506 66.0007 110.057 65.1893 110.555 64.4754C111.053 63.7614 111.518 62.9717 111.951 62.1062C112.037 61.9332 112.156 61.6843 112.308 61.3598C112.459 61.0353 112.621 60.8514 112.794 60.8081V60.6783H112.924C113.054 60.6783 113.184 60.6566 113.314 60.6134C113.443 60.5701 113.617 60.5485 113.833 60.5485C114.439 60.4619 115.055 60.3754 115.683 60.2888C116.31 60.2023 116.948 60.1157 117.597 60.0292C118.506 59.9427 119.415 59.8453 120.324 59.7371C121.232 59.6289 122.141 59.5316 123.05 59.445L127.983 59.1854C128.329 59.1854 128.664 59.1746 128.989 59.153C129.313 59.1313 129.649 59.1421 129.995 59.1854C130.298 59.272 130.59 59.2611 130.871 59.153C131.152 59.0448 131.401 58.9907 131.617 58.9907L131.682 58.9258C131.639 58.7527 131.693 58.6445 131.845 58.6012C131.996 58.558 132.115 58.4714 132.202 58.3416C132.202 58.2551 132.245 58.2226 132.331 58.2443C132.418 58.2659 132.483 58.2334 132.526 58.1469C132.526 57.9305 132.548 57.7791 132.591 57.6925C132.678 57.5195 132.775 57.4005 132.883 57.3356C132.991 57.2706 133.089 57.1949 133.175 57.1084C133.132 57.0218 133.11 56.892 133.11 56.7189C133.067 56.6324 133.056 56.535 133.078 56.4269C133.1 56.3187 133.11 56.2213 133.11 56.1348C133.067 56.0915 133.035 56.0482 133.013 56.005C132.991 55.9617 132.937 55.8968 132.851 55.8102C132.375 55.2044 131.791 54.7717 131.098 54.5121C130.406 54.2525 129.692 54.0794 128.956 53.9928ZM105.2 62.1711L104.162 63.9885C103.902 64.4213 103.599 64.7999 103.253 65.1244C102.907 65.449 102.561 65.8492 102.214 66.3252C101.738 66.931 101.23 67.4935 100.689 68.0128C100.148 68.5321 99.6182 69.0297 99.0989 69.5057C98.8826 69.6355 98.6987 69.7545 98.5472 69.8627C98.3958 69.9708 98.2768 70.0682 98.1902 70.1547C97.9739 70.2413 97.7467 70.3819 97.5087 70.5766C97.2707 70.7714 97.0219 70.912 96.7623 70.9985C96.4594 71.1283 96.1997 71.2906 95.9834 71.4853C95.767 71.6801 95.529 71.8207 95.2694 71.9072L93.5169 72.8159C93.3871 72.8159 93.1924 72.8592 92.9327 72.9457C92.6731 73.0323 92.5 73.1188 92.4135 73.2054C91.2019 73.5083 90.1201 73.5948 89.1681 73.465C88.6056 73.465 87.9132 73.2919 87.0911 72.9457C86.442 72.7727 85.9877 72.2318 85.728 71.3231C85.4684 70.4576 85.5549 69.722 85.9877 69.1162C86.0742 68.8999 86.1716 68.7376 86.2797 68.6294L86.6367 68.2724L87.3507 67.5584L87.9349 67.0392L88.3892 66.7147C88.8652 66.5416 89.3845 66.2819 89.947 65.9358C90.5095 65.5896 91.0288 65.3516 91.5048 65.2218C92.0673 65.0054 92.6298 64.8107 93.1924 64.6376C93.7549 64.4645 94.3174 64.3347 94.88 64.2482L96.3079 63.8587C96.7839 63.7289 97.2599 63.6207 97.7359 63.5342L100.267 63.0798C100.484 63.0366 100.711 62.9825 100.949 62.9176C101.187 62.8527 101.436 62.7769 101.695 62.6904C102.041 62.6039 102.517 62.5281 103.123 62.4632C103.729 62.3983 104.162 62.3226 104.421 62.2361C104.551 62.2361 104.692 62.2036 104.843 62.1387C104.995 62.0738 105.114 62.0846 105.2 62.1711ZM123.504 21.7339C123.893 21.8205 124.25 21.7664 124.575 21.5717C124.9 21.3769 125.235 21.2147 125.581 21.0849C125.884 20.8252 126.144 20.5331 126.36 20.2086C126.576 19.8841 126.728 19.5054 126.814 19.0727C126.814 18.9429 126.836 18.6725 126.879 18.2614C126.922 17.8503 126.944 17.5799 126.944 17.4501C127.031 16.7577 126.793 16.0978 126.23 15.4704C125.668 14.8429 124.997 14.421 124.218 14.2047C123.699 14.1181 123.299 14.1073 123.017 14.1722C122.736 14.2371 122.379 14.3561 121.946 14.5292C121.816 14.5725 121.73 14.6158 121.687 14.659C121.643 14.7023 121.578 14.7239 121.492 14.7239C121.232 15.0268 121.005 15.2973 120.81 15.5353C120.616 15.7733 120.453 16.0437 120.324 16.3466C120.237 16.5197 120.183 16.7144 120.161 16.9308C120.14 17.1472 120.129 17.3202 120.129 17.4501C120.129 18.0991 120.194 18.7698 120.324 19.4622C120.453 19.8949 120.507 20.1653 120.486 20.2735C120.464 20.3817 120.562 20.544 120.778 20.7603C121.081 20.9767 121.524 21.2039 122.109 21.4418C122.693 21.6798 123.158 21.7772 123.504 21.7339Z" fill="white"/>
<path d="M136.356 8.03851C136.053 8.29814 135.858 8.55777 135.771 8.8174C135.685 9.07703 135.62 9.31502 135.577 9.53138C135.533 9.74774 135.404 9.97491 135.187 10.2129C134.971 10.4509 134.819 10.6781 134.733 10.8944C134.646 11.1108 134.56 11.2947 134.473 11.4461C134.387 11.5976 134.3 11.7815 134.214 11.9979L133.565 13.9451C133.348 14.5941 133.089 15.2216 132.786 15.8274C132.569 16.3899 132.375 16.8767 132.202 17.2878C132.028 17.6989 131.866 18.11 131.715 18.521C131.563 18.9321 131.401 19.354 131.228 19.7867C131.055 20.2194 130.882 20.7171 130.709 21.2796C130.536 21.669 130.406 21.9719 130.319 22.1883C130.233 22.4047 130.146 22.5886 130.06 22.74C129.973 22.8915 129.886 23.0754 129.8 23.2917C129.713 23.5081 129.584 23.811 129.411 24.2004C128.935 25.4553 128.394 26.7534 127.788 28.0949C127.442 29.0468 127.063 29.988 126.652 30.9183C126.241 31.8487 125.754 32.7465 125.192 33.612L125.062 34.0014L124.413 36.1434C124.283 36.3597 124.099 36.6842 123.861 37.117C123.623 37.5497 123.526 37.8742 123.569 38.0906C123.223 38.8262 123.071 39.3346 123.115 39.6159C123.158 39.8972 123.179 40.1676 123.179 40.4272C123.179 40.5138 123.212 40.6328 123.277 40.7842C123.342 40.9357 123.331 41.0547 123.244 41.1412C123.028 41.747 122.898 42.3312 122.855 42.8937C122.812 43.4562 122.768 44.1053 122.725 44.8409C122.639 46.0958 122.768 47.3723 123.115 48.6704C123.201 49.0599 123.32 49.4493 123.471 49.8388C123.623 50.2282 123.85 50.5528 124.153 50.8124C124.716 51.5047 125.516 51.9807 126.555 52.2403C126.728 52.2836 126.847 52.3053 126.912 52.3053C126.976 52.3053 127.074 52.3485 127.204 52.4351C127.939 52.6514 128.621 52.7272 129.248 52.6622C129.876 52.5973 130.536 52.5216 131.228 52.4351C131.877 52.2187 132.537 51.9374 133.208 51.5913C133.878 51.2451 134.517 50.8773 135.122 50.4879C135.901 49.9686 136.637 49.4169 137.329 48.8327C138.022 48.2486 138.692 47.6536 139.341 47.0478C141.289 45.2304 142.89 43.2507 144.144 41.1088C145.399 38.9668 146.438 36.5977 147.26 34.0014C147.433 33.5254 147.574 33.0386 147.682 32.541C147.79 32.0434 147.844 31.5133 147.844 30.9508L147.974 28.6141C148.061 27.4891 147.931 26.364 147.585 25.2389C147.238 24.1139 146.568 23.2052 145.572 22.5128C145.01 22.1234 144.556 21.8529 144.209 21.7015C143.863 21.55 143.43 21.4094 142.911 21.2796H142.392C141.7 21.2796 141.051 21.3661 140.445 21.5392C139.839 21.7123 139.255 21.9287 138.692 22.1883C138.389 22.2748 138.011 22.5236 137.556 22.9347C137.102 23.3458 136.767 23.6163 136.55 23.7461C136.507 23.7461 136.41 23.811 136.258 23.9408C136.107 24.0706 136.009 24.0922 135.966 24.0057C136.009 23.9192 136.085 23.7461 136.193 23.4864C136.301 23.2268 136.42 22.9564 136.55 22.6751C136.68 22.3938 136.799 22.1234 136.907 21.8638C137.015 21.6041 137.091 21.431 137.134 21.3445C137.264 20.9118 137.394 20.5764 137.524 20.3384C137.654 20.1004 137.762 19.8733 137.848 19.6569C137.935 19.4406 138.043 19.2134 138.173 18.9754C138.303 18.7374 138.433 18.3804 138.562 17.9044C138.606 17.8179 138.671 17.6989 138.757 17.5474C138.844 17.396 138.93 17.277 139.017 17.1904C139.19 16.7144 139.309 16.4115 139.374 16.2817C139.439 16.1519 139.558 15.8274 139.731 15.3081C139.817 15.0052 139.958 14.7023 140.153 14.3994C140.347 14.0965 140.466 13.772 140.51 13.4258C140.596 12.82 140.813 12.2034 141.159 11.576C141.505 10.9485 141.7 10.2886 141.743 9.59629C141.743 9.25012 141.7 8.96885 141.613 8.7525C141.44 8.66595 141.267 8.53614 141.094 8.36305C140.921 8.18996 140.813 8.01688 140.769 7.84379C140.726 7.93033 140.672 7.97361 140.607 7.97361C140.542 7.97361 140.488 7.99524 140.445 8.03851C140.445 7.77888 140.358 7.58416 140.185 7.45435C140.055 7.15145 139.796 7.04327 139.406 7.12981L138.238 7.45435C138.195 7.19472 138.086 7.04327 137.913 7C137.524 7 137.308 7.15145 137.264 7.45435C137.178 7.80052 136.983 8.03851 136.68 8.16833C136.594 8.25487 136.485 8.2116 136.356 8.03851ZM142.457 29.5228C142.457 29.869 142.414 30.2152 142.327 30.5613C142.241 30.9075 142.176 31.2537 142.132 31.5998C142.003 32.1624 141.862 32.6816 141.71 33.1576C141.559 33.6336 141.332 34.1096 141.029 34.5856C140.38 36.1001 139.601 37.5389 138.692 38.9019C137.784 40.265 136.745 41.509 135.577 42.6341C134.971 43.1966 134.354 43.7591 133.727 44.3217C133.099 44.8842 132.44 45.3385 131.747 45.6847C131.271 45.8578 130.838 45.9876 130.449 46.0742C130.06 46.1607 129.627 46.1391 129.151 46.0093C128.675 45.9227 128.437 45.7064 128.437 45.3602C128.437 45.1871 128.394 45.0248 128.307 44.8734C128.221 44.7219 128.221 44.538 128.307 44.3217C128.394 43.1533 128.697 42.0932 129.216 41.1412C129.259 40.9681 129.324 40.8816 129.411 40.8816C129.757 40.622 129.984 40.3299 130.092 40.0053C130.2 39.6808 130.362 39.3238 130.579 38.9344C130.752 38.6747 130.893 38.4043 131.001 38.123C131.109 37.8418 131.206 37.5713 131.293 37.3117C131.379 37.0088 131.52 36.7383 131.715 36.5003C131.909 36.2623 132.05 36.0352 132.137 35.8188C132.44 35.1697 132.764 34.6072 133.11 34.1312C133.283 33.9149 133.456 33.7093 133.629 33.5146C133.803 33.3199 133.976 33.1143 134.149 32.898C134.884 31.6431 135.771 30.5938 136.81 29.75C137.848 28.9062 138.93 28.1814 140.055 27.5756C140.401 27.4891 140.683 27.4025 140.899 27.316C141.375 27.2727 141.808 27.5323 142.197 28.0949C142.284 28.3112 142.381 28.5492 142.489 28.8088C142.597 29.0685 142.587 29.3065 142.457 29.5228Z" fill="white"/>
<path fill-rule="evenodd" clip-rule="evenodd" d="M42.2919 36.129C37.4956 36.2256 33.6231 40.0981 33.6231 44.8461C33.6231 49.594 37.5439 53.6603 42.3402 53.5636H62.6804V63.6371L22 63.5676V47.0676C21.9747 35.8949 39.9634 35.9634 42.2919 36.129Z" fill="#477FEC"/>
<path fill-rule="evenodd" clip-rule="evenodd" d="M42.3885 50.1983C47.1848 50.1016 51.0573 46.2292 51.0573 41.4812C51.0573 36.7333 47.1365 32.667 42.3402 32.7636H22V22.6907L62.6804 22.7596V39.2597C62.7057 50.4324 44.717 50.3639 42.3885 50.1983Z" fill="#EDCF30"/>
</svg>
