<svg width="57" height="57" viewBox="0 0 57 57" fill="none" xmlns="http://www.w3.org/2000/svg">
<g clip-path="url(#clip0)">
<path d="M28.5 0C22.8632 0 17.3531 1.6715 12.6663 4.80311C7.97946 7.93473 4.32654 12.3858 2.16945 17.5935C0.0123485 22.8012 -0.552046 28.5316 0.547632 34.0601C1.64731 39.5885 4.36167 44.6667 8.34747 48.6525C12.3333 52.6383 17.4115 55.3527 22.9399 56.4524C28.4684 57.552 34.1988 56.9876 39.4065 54.8306C44.6142 52.6735 49.0653 49.0205 52.1969 44.3337C55.3285 39.6469 57 34.1368 57 28.5C57 20.9413 53.9973 13.6922 48.6525 8.34745C43.3078 3.00267 36.0587 0 28.5 0V0ZM31.4179 36.2561L17.9822 44.0121V12.9879L31.4179 20.7439L44.8536 28.5L31.4179 36.2561Z" fill="#EDCF30"/>
</g>
<defs>
<clipPath id="clip0">
<rect width="57" height="57" fill="white"/>
</clipPath>
</defs>
</svg>
