<svg width="57" height="26" viewBox="0 0 57 26" xmlns="http://www.w3.org/2000/svg">
<path d="M2.74845 13.6421C2.62915 13.6421 2.52857 13.7497 2.5122 13.876L1.96719 18.9144L2.5122 23.8383C2.52857 23.9739 2.62915 24.0675 2.74845 24.0675C2.8654 24.0675 2.95896 23.9739 2.98002 23.8383L3.57649 18.9144L2.94493 13.876C2.94493 13.7427 2.83967 13.6421 2.73441 13.6421H2.74845ZM0.631558 15.5789C0.491212 15.5789 0.418699 15.6654 0.388291 15.7988L0 18.9144L0.385952 21.974C0.385952 22.1026 0.491212 22.1939 0.596471 22.1939C0.701731 22.1939 0.804651 22.0886 0.839738 21.9506L1.33095 18.8653L0.839738 15.745C0.839738 15.6023 0.736817 15.5344 0.629219 15.5344L0.631558 15.5789ZM4.90978 12.6597C4.76709 12.6597 4.62908 12.7649 4.62908 12.903L4.13787 18.8981L4.66417 24.6476C4.66417 24.7879 4.76943 24.9283 4.94252 24.9283C5.08521 24.9283 5.18813 24.7856 5.22555 24.6476L5.81969 18.8606L5.22555 12.9006C5.18813 12.7603 5.08287 12.6199 4.94252 12.6199L4.90978 12.6597ZM7.15298 12.4117C6.97754 12.4117 6.8372 12.5521 6.80211 12.7275L6.35066 18.9028L6.84187 24.8534C6.8793 25.0335 7.01731 25.1762 7.1904 25.1762C7.36583 25.1762 7.50618 25.0335 7.54127 24.8254L8.10265 18.9028L7.54127 12.7673C7.54127 12.5919 7.40092 12.4515 7.22549 12.4515L7.15298 12.4117ZM9.85464 13.2538C9.84294 13.0433 9.67921 12.9053 9.48272 12.9053C9.2722 12.9053 9.11314 13.0456 9.09911 13.2538L8.59152 18.9378L9.05934 24.933C9.05934 25.1435 9.23478 25.3002 9.43126 25.3002C9.60435 25.3002 9.77745 25.1411 9.77745 24.9306L10.3084 18.9355L9.77745 13.2187L9.85464 13.2538ZM11.747 9.25629C11.5107 9.25629 11.3259 9.46681 11.3259 9.67967L10.8347 18.9355L11.2721 24.9306C11.2721 25.1411 11.4593 25.3142 11.6932 25.3142C11.913 25.3142 12.1002 25.1037 12.1142 24.8932L12.6031 18.8981L12.1142 9.60716C12.0955 9.36389 11.9084 9.18612 11.6932 9.18612L11.747 9.25629ZM13.9364 7.04818C13.6908 7.04818 13.4802 7.2587 13.4615 7.50197L13.0405 18.8981L13.4264 24.8581C13.4264 25.1388 13.637 25.347 13.8826 25.347C14.1258 25.347 14.3364 25.1388 14.3738 24.8581L14.8252 18.8981L14.3761 7.53939C14.3387 7.2587 14.1305 7.04818 13.8849 7.04818H13.9364ZM16.1983 5.99792C15.9153 5.99792 15.7047 6.2061 15.672 6.48679L15.286 18.8256L15.672 24.7201C15.7047 24.9985 15.9153 25.2464 16.1983 25.2464C16.4766 25.2464 16.7246 25.0008 16.7246 24.7201L17.1807 18.8256L16.7222 6.48679C16.7222 6.2061 16.4766 5.9605 16.1959 5.9605L16.1983 5.99792ZM19.1081 6.06576C19.1081 5.74998 18.8625 5.50437 18.5467 5.50437C18.2684 5.50437 17.9854 5.74998 17.9854 6.06576L17.6368 18.7928L17.9854 24.6476C18.0228 24.9634 18.2684 25.209 18.5842 25.209C18.8999 25.209 19.1456 24.9634 19.1456 24.6476L19.5292 18.7928L19.1456 6.03067L19.1081 6.06576ZM20.8601 5.75232C20.5443 5.75232 20.2636 6.03067 20.2636 6.34645L19.9128 18.7952L20.2636 24.5798C20.2636 24.9306 20.5443 25.1762 20.8601 25.1762C21.1759 25.1762 21.4566 24.8955 21.4566 24.5447L21.8075 18.7577L21.4215 6.34411C21.4215 5.99792 21.1408 5.71255 20.7876 5.71255L20.8601 5.75232ZM23.1384 6.10084C22.7548 6.10084 22.4741 6.41662 22.4741 6.76749L22.2332 18.7975L22.5489 24.5844C22.5489 24.933 22.8273 25.2324 23.2133 25.2324C23.5618 25.2324 23.8472 24.9517 23.8776 24.5657L24.1606 18.8513L23.8448 6.8938C23.8167 6.51019 23.529 6.22715 23.1782 6.22715L23.1384 6.10084ZM25.9477 4.0167C25.8424 3.94887 25.7021 3.91378 25.5617 3.91378C25.4214 3.91378 25.2834 3.94887 25.1758 4.0167C24.9652 4.14301 24.8272 4.36757 24.8272 4.61317V4.75586L24.584 18.9028L24.853 24.6312V24.6499C24.8717 24.7903 24.9231 24.9657 25.0261 25.071C25.1617 25.2136 25.3582 25.3142 25.5734 25.3142C25.7605 25.3142 25.943 25.2113 26.0623 25.1037C26.1979 24.9634 26.2751 24.7879 26.2751 24.5774L26.3102 24.016L26.5839 18.863L26.2681 4.62721C26.2681 4.38394 26.1254 4.17576 25.9523 4.06816L25.9477 4.0167ZM28.3008 2.73721C28.1955 2.63195 28.0903 2.59453 27.9499 2.59453C27.7768 2.59453 27.6014 2.63195 27.4611 2.73721C27.2856 2.8799 27.1827 3.08808 27.1827 3.2986V3.36643L26.8623 18.8256L27.04 21.6676L27.1827 24.4394C27.1827 24.823 27.5289 25.1739 27.9499 25.1739C28.3733 25.1739 28.7218 24.823 28.7218 24.4043L29.0727 18.7577L28.7218 3.2331C28.7218 2.95241 28.5487 2.71616 28.3359 2.58517L28.3008 2.73721ZM49.2334 11.42C48.2861 11.42 47.3738 11.6211 46.5692 11.9626C46.0078 5.75465 40.815 0.884644 34.4339 0.884644C32.8925 0.884644 31.3814 1.20042 30.0154 1.72438C29.4891 1.9349 29.3838 2.14542 29.3487 2.56412V24.4768C29.3861 24.8979 29.6996 25.2487 30.1206 25.2838H49.2662C53.0532 25.3212 56.1385 22.2711 56.1385 18.449C56.1385 14.6269 53.0532 11.5439 49.2662 11.5439" />
</svg>
