<svg width="41" height="34" viewBox="0 0 41 34" xmlns="http://www.w3.org/2000/svg">
<path d="M40.3979 4.37749C38.8865 5.04292 37.2854 5.48216 35.6461 5.68108C37.3721 4.64368 38.6644 3.01679 39.2844 1.10086C37.6847 2.0344 35.9118 2.71394 34.0246 3.09241C32.7795 1.76094 31.1295 0.877853 29.3311 0.580265C27.5326 0.282676 25.6861 0.587244 24.0785 1.44667C22.4709 2.3061 21.192 3.67229 20.4404 5.33311C19.6889 6.99392 19.5067 8.85641 19.9223 10.6314C13.0427 10.3067 6.9486 7.00149 2.86626 2.00916C2.12413 3.27039 1.73704 4.7089 1.74601 6.17224C1.74601 9.04855 3.2094 11.5767 5.42634 13.0619C4.11242 13.0201 2.82753 12.6649 1.67873 12.0258V12.1267C1.67799 14.0382 2.33855 15.891 3.54834 17.3709C4.75814 18.8508 6.44266 19.8666 8.31611 20.246C7.10217 20.5712 5.83073 20.6201 4.59541 20.3889C5.12714 22.034 6.15915 23.472 7.54743 24.5024C8.93572 25.5327 10.611 26.104 12.3396 26.1365C9.41201 28.4341 5.7972 29.6811 2.0757 29.6772C1.4197 29.6772 0.765379 29.6385 0.107697 29.5645C3.90191 31.994 8.31361 33.2835 12.819 33.2802C28.0466 33.2802 36.3643 20.6715 36.3643 9.75669C36.3643 9.40346 36.3643 9.05023 36.3391 8.697C37.9639 7.52775 39.3655 6.07606 40.4769 4.41113L40.3979 4.37749Z" />
</svg>
