<svg width="100%" viewBox="0 0 1428 322" fill="none" xmlns="http://www.w3.org/2000/svg"><mask id="a" maskUnits="userSpaceOnUse" x="0" y="0" width="1428" height="322"><path stroke="#fff" stroke-width="6" d="M713 57.368v206.339M726.143 9.253v303.494"/><path transform="matrix(-.0099 .99995 -.9998 -.01962 736.286 33.31)" stroke="#fff" stroke-width="6" d="M0-3h254.469"/><path transform="matrix(-.0099 .99995 -.9998 -.01962 749.429 23.132)" stroke="#fff" stroke-width="6" d="M0-3h275.747"/><path stroke="#fff" stroke-width="6" d="M765.572 71.247v178.581"/><path transform="matrix(.00368 1 -.99997 .0073 775.715 58.293)" stroke="#fff" stroke-width="6" d="M0-3h206.34"/><path stroke="#fff" stroke-width="6" d="M792.516 40.713v240.574M1081.66 57.368v206.339M1094.81 9.253v303.494"/><path transform="matrix(-.0099 .99995 -.9998 -.01962 1104.95 33.31)" stroke="#fff" stroke-width="6" d="M0-3h254.469"/><path transform="matrix(-.0099 .99995 -.9998 -.01962 1118.09 23.132)" stroke="#fff" stroke-width="6" d="M0-3h275.747"/><path stroke="#fff" stroke-width="6" d="m1134.24 71.247-.01 178.581"/><path transform="matrix(.00368 1 -.99997 .0073 1144.38 58.293)" stroke="#fff" stroke-width="6" d="M0-3h206.34"/><path stroke="#fff" stroke-width="6" d="M1161.18 40.713v240.574M805.659 40.713v240.574M818.802 7.402v307.196M831.945 24.058v272.96M845.088 9.253v303.494M858.231 56.443v208.189M871.374 24.983v272.034M884.517 0v322M897.66 16.655v288.69M910.803 78.649v164.702M1290.55 281.287V40.713M1277.41 281.287V40.713M1264.27 314.598V7.402M1251.12 297.017V24.057M1237.98 312.747V9.253M1224.84 264.632V56.442M1211.69 297.017V24.982M1198.55 322V0M1185.41 305.345V16.655M1172.26 243.351V78.649M923.946 67.546v186.908M1002.8 56.443v208.189M1015.95 24.983v272.034M1029.09 0v322M1042.23 16.655v288.69M1055.38 78.649v164.702M1068.52 67.546v186.908M1357.67 57.368v206.339M1370.81 9.253v303.494"/><path transform="matrix(-.0099 .99995 -.9998 -.01962 1380.95 33.31)" stroke="#fff" stroke-width="6" d="M0-3h254.469"/><path transform="matrix(-.0099 .99995 -.9998 -.01962 1394.1 23.132)" stroke="#fff" stroke-width="6" d="M0-3h275.747"/><path stroke="#fff" stroke-width="6" d="M1410.24 71.247v178.581"/><path transform="matrix(.00368 1 -.99997 .0073 1420.38 58.293)" stroke="#fff" stroke-width="6" d="M0-3h206.34"/><path stroke="#fff" stroke-width="6" d="M1305.09 0v322M1318.24 16.655v288.69M1331.38 78.649v164.702M1344.52 67.546v186.908M937.089 94.379v133.242"/><path transform="matrix(-.00455 .99999 -.99996 -.00903 947.232 78.65)" stroke="#fff" stroke-width="6" d="M0-3h164.702"/><path stroke="#fff" stroke-width="6" d="M963.375 60.144v200.787M976.518 78.649v164.702M989.661 60.144v200.787M3 57.368v206.339M16.143 9.253v303.494"/><path transform="matrix(-.0099 .99995 -.9998 -.01962 26.286 33.31)" stroke="#fff" stroke-width="6" d="M0-3h254.469"/><path transform="matrix(-.0099 .99995 -.9998 -.01962 39.43 23.132)" stroke="#fff" stroke-width="6" d="M0-3h275.747"/><path stroke="#fff" stroke-width="6" d="M55.572 71.247v178.581"/><path transform="matrix(.00368 1 -.99997 .0073 65.715 58.293)" stroke="#fff" stroke-width="6" d="M0-3h206.34"/><path stroke="#fff" stroke-width="6" d="M82.516 40.713v240.574M371.663 57.368v206.339M384.806 9.253v303.494"/><path transform="matrix(-.0099 .99995 -.9998 -.01962 394.949 33.31)" stroke="#fff" stroke-width="6" d="M0-3h254.469"/><path transform="matrix(-.0099 .99995 -.9998 -.01962 408.092 23.132)" stroke="#fff" stroke-width="6" d="M0-3h275.747"/><path stroke="#fff" stroke-width="6" d="M424.235 71.247v178.581"/><path transform="matrix(.00368 1 -.99997 .0073 434.378 58.293)" stroke="#fff" stroke-width="6" d="M0-3h206.34"/><path stroke="#fff" stroke-width="6" d="M451.178 40.713v240.574M95.659 40.713v240.574M108.802 7.402v307.196M121.945 24.058v272.96M135.088 9.253v303.494M148.231 56.443v208.189M161.374 24.983v272.034M174.517 0v322M187.66 16.655v288.69M200.803 78.649v164.702M580.552 281.287V40.713M567.409 281.287V40.713M554.266 314.598V7.402M541.123 297.017V24.057M527.98 312.747V9.253M514.837 264.632V56.442M501.694 297.017V24.982M488.55 322V0M475.407 305.345V16.655M462.264 243.351V78.649M213.946 67.546v186.908M292.804 56.443v208.189M305.948 24.983v272.034M319.091 0v322M332.234 16.655v288.69M345.377 78.649v164.702M358.52 67.546v186.908M647.667 57.368v206.339M660.81 9.253v303.494"/><path transform="matrix(-.0099 .99995 -.9998 -.01962 670.953 33.31)" stroke="#fff" stroke-width="6" d="M0-3h254.469"/><path transform="matrix(-.0099 .99995 -.9998 -.01962 684.096 23.132)" stroke="#fff" stroke-width="6" d="M0-3h275.747"/><path stroke="#fff" stroke-width="6" d="M700.239 71.247v178.581"/><path transform="matrix(.00368 1 -.99997 .0073 710.382 58.293)" stroke="#fff" stroke-width="6" d="M0-3h206.34"/><path stroke="#fff" stroke-width="6" d="M595.095 0v322M608.238 16.655v288.69M621.381 78.649v164.702M634.524 67.546v186.908M227.089 94.379v133.242"/><path transform="matrix(-.00455 .99999 -.99996 -.00903 237.232 78.65)" stroke="#fff" stroke-width="6" d="M0-3h164.702"/><path stroke="#fff" stroke-width="6" d="M253.375 60.144v200.787M266.518 78.649v164.702M279.661 60.144v200.787"/></mask><g mask="url(#a)"><path d="M-23-103.237h1580v530.931H-23v-530.931Z" fill="url(#b)"/></g><defs><linearGradient id="b" x1="-77.5" y1="-147.185" x2="1270.72" y2="738.678" gradientUnits="userSpaceOnUse"><stop stop-color="#090909"/><stop offset=".573" stop-color="#0E0E0E"/><stop offset="1" stop-color="#262626"/></linearGradient></defs></svg>
